<svg xmlns="http://www.w3.org/2000/svg" version="1.1" xmlns:xlink="http://www.w3.org/1999/xlink" width="200" height="200"><svg xmlns="http://www.w3.org/2000/svg" version="1.1" xmlns:xlink="http://www.w3.org/1999/xlink" viewBox="0 0 200 200"><rect width="200" height="200" fill="url('#gradient')"></rect><defs><linearGradient id="SvgjsLinearGradient1006" gradientTransform="rotate(45 0.5 0.5)"><stop offset="0%" stop-color="#472027" data-darkreader-inline-stopcolor="" style="--darkreader-inline-stopcolor: var(--darkreader-background-472027, #391a1f);"></stop><stop offset="100%" stop-color="#192025" data-darkreader-inline-stopcolor="" style="--darkreader-inline-stopcolor: var(--darkreader-background-192025, #141a1e);"></stop></linearGradient></defs><g><g fill="#7cf2d6" transform="matrix(1.7393601962819667,0,0,1.7393601962819667,9.405461205796179,109.52162946407847)" stroke="#ffffff" stroke-width="0.2" data-darkreader-inline-fill="" data-darkreader-inline-stroke="" style="--darkreader-inline-fill: var(--darkreader-background-7cf2d6, #0c7d69); --darkreader-inline-stroke: var(--darkreader-text-ffffff, #e8e6e3);"><path d="M6.46-2.97L6.46-2.97Q6.46-3.39 6.02-3.64Q5.58-3.90 4.35-4.17Q3.12-4.44 2.31-4.89Q1.51-5.33 1.09-5.97Q0.67-6.60 0.67-7.42L0.67-7.42Q0.67-8.88 1.88-9.82Q3.08-10.76 5.02-10.76L5.02-10.76Q7.11-10.76 8.38-9.81Q9.65-8.87 9.65-7.32L9.65-7.32L6.35-7.32Q6.35-8.59 5.01-8.59L5.01-8.59Q4.49-8.59 4.14-8.31Q3.79-8.02 3.79-7.59L3.79-7.59Q3.79-7.15 4.22-6.88Q4.65-6.60 5.59-6.43Q6.53-6.25 7.25-6.01L7.25-6.01Q9.63-5.19 9.63-3.07L9.63-3.07Q9.63-1.62 8.34-0.71Q7.06 0.20 5.02 0.20L5.02 0.20Q3.66 0.20 2.60-0.29Q1.53-0.78 0.94-1.62Q0.34-2.46 0.34-3.39L0.34-3.39L3.42-3.39Q3.44-2.66 3.91-2.32Q4.38-1.98 5.11-1.98L5.11-1.98Q5.78-1.98 6.12-2.26Q6.46-2.53 6.46-2.97ZM17.71 0L15.41-3.94L14.48-3.01L14.48 0L11.19 0L11.19-15.01L14.48-15.01L14.48-7.04L14.81-7.48L17.29-10.57L21.24-10.57L17.54-6.22L21.48 0L17.71 0ZM21.70-4.82L21.69-5.38Q21.69-6.96 22.30-8.20Q22.92-9.43 24.07-10.10Q25.22-10.76 26.78-10.76L26.78-10.76Q29.15-10.76 30.52-9.29Q31.88-7.82 31.88-5.29L31.88-5.29L31.88-5.18Q31.88-2.71 30.51-1.25Q29.14 0.20 26.80 0.20L26.80 0.20Q24.54 0.20 23.17-1.16Q21.81-2.51 21.70-4.82L21.70-4.82ZM24.99-5.77L24.98-5.18Q24.98-3.71 25.44-3.03Q25.90-2.34 26.80-2.34L26.80-2.34Q28.55-2.34 28.59-5.05L28.59-5.05L28.59-5.38Q28.59-8.22 26.78-8.22L26.78-8.22Q25.13-8.22 24.99-5.77L24.99-5.77ZM39.79-10.64L39.73-7.59L38.64-7.67Q37.09-7.67 36.65-6.69L36.65-6.69L36.65 0L33.36 0L33.36-10.57L36.45-10.57L36.55-9.21Q37.38-10.76 38.87-10.76L38.87-10.76Q39.39-10.76 39.79-10.64L39.79-10.64ZM48.93 0L45.90-5.29L44.49-3.75L44.49 0L41.06 0L41.06-14.22L44.49-14.22L44.49-7.95L45.68-9.76L48.75-14.22L52.99-14.22L48.18-7.93L52.99 0L48.93 0ZM58.56 0.20L58.56 0.20Q56.13 0.20 54.63-1.25Q53.13-2.71 53.13-5.03L53.13-5.03L53.13-5.30Q53.13-6.92 53.73-8.16Q54.33-9.40 55.48-10.08Q56.63-10.76 58.21-10.76L58.21-10.76Q60.44-10.76 61.73-9.38Q63.02-8.00 63.02-5.53L63.02-5.53L63.02-4.25L56.47-4.25Q56.65-3.36 57.25-2.85Q57.84-2.34 58.79-2.34L58.79-2.34Q60.35-2.34 61.23-3.44L61.23-3.44L62.73-1.66Q62.12-0.81 60.99-0.31Q59.86 0.20 58.56 0.20ZM58.19-8.22L58.19-8.22Q56.75-8.22 56.47-6.31L56.47-6.31L59.79-6.31L59.79-6.56Q59.81-7.35 59.39-7.79Q58.97-8.22 58.19-8.22ZM69.45 0.20L69.45 0.20Q67.02 0.20 65.52-1.25Q64.01-2.71 64.01-5.03L64.01-5.03L64.01-5.30Q64.01-6.92 64.61-8.16Q65.21-9.40 66.37-10.08Q67.52-10.76 69.10-10.76L69.10-10.76Q71.33-10.76 72.62-9.38Q73.91-8.00 73.91-5.53L73.91-5.53L73.91-4.25L67.36-4.25Q67.54-3.36 68.13-2.85Q68.73-2.34 69.68-2.34L69.68-2.34Q71.24-2.34 72.12-3.44L72.12-3.44L73.62-1.66Q73.01-0.81 71.88-0.31Q70.75 0.20 69.45 0.20ZM69.08-8.22L69.08-8.22Q67.64-8.22 67.36-6.31L67.36-6.31L70.68-6.31L70.68-6.56Q70.70-7.35 70.28-7.79Q69.86-8.22 69.08-8.22ZM85.04-5.36L85.04-5.21Q85.04-2.74 83.93-1.27Q82.82 0.20 80.94 0.20L80.94 0.20Q79.48 0.20 78.54-0.87L78.54-0.87L78.54 4.06L75.25 4.06L75.25-10.57L78.33-10.57L78.43-9.59Q79.38-10.76 80.92-10.76L80.92-10.76Q82.87-10.76 83.96-9.32Q85.04-7.88 85.04-5.36L85.04-5.36ZM81.75-5.06L81.75-5.41Q81.75-8.22 80.11-8.22L80.11-8.22Q78.94-8.22 78.54-7.38L78.54-7.38L78.54-3.22Q78.97-2.34 80.13-2.34L80.13-2.34Q81.70-2.34 81.75-5.06L81.75-5.06ZM91.60 0.20L91.60 0.20Q89.17 0.20 87.67-1.25Q86.16-2.71 86.16-5.03L86.16-5.03L86.16-5.30Q86.16-6.92 86.76-8.16Q87.36-9.40 88.52-10.08Q89.67-10.76 91.25-10.76L91.25-10.76Q93.48-10.76 94.77-9.38Q96.05-8.00 96.05-5.53L96.05-5.53L96.05-4.25L89.51-4.25Q89.69-3.36 90.28-2.85Q90.88-2.34 91.83-2.34L91.83-2.34Q93.39-2.34 94.27-3.44L94.27-3.44L95.77-1.66Q95.16-0.81 94.03-0.31Q92.90 0.20 91.60 0.20ZM91.23-8.22L91.23-8.22Q89.79-8.22 89.51-6.31L89.51-6.31L92.83-6.31L92.83-6.56Q92.85-7.35 92.43-7.79Q92.01-8.22 91.23-8.22ZM103.83-10.64L103.77-7.59L102.69-7.67Q101.13-7.67 100.69-6.69L100.69-6.69L100.69 0L97.40 0L97.40-10.57L100.49-10.57L100.60-9.21Q101.43-10.76 102.91-10.76L102.91-10.76Q103.44-10.76 103.83-10.64L103.83-10.64Z"></path></g></g></svg><style>@media (prefers-color-scheme: light) { :root { filter: none; } }
@media (prefers-color-scheme: dark) { :root { filter: none; } }
</style></svg>